<?xml version="1.0" standalone="no"?>
<!DOCTYPE svg PUBLIC "-//W3C//DTD SVG 20010904//EN"
 "http://www.w3.org/TR/2001/REC-SVG-20010904/DTD/svg10.dtd">
<svg version="1.0" xmlns="http://www.w3.org/2000/svg"
 width="80.000000pt" height="80.000000pt" viewBox="0 0 80.000000 80.000000"
 preserveAspectRatio="xMidYMid meet">

<g transform="translate(0.000000,80.000000) scale(0.100000,-0.100000)"
fill="#000000" stroke="none">
<path d="M0 400 l0 -400 400 0 400 0 0 400 0 400 -400 0 -400 0 0 -400z m288
229 l52 -51 0 -176 0 -176 -52 -53 c-29 -29 -56 -53 -60 -53 -9 0 -78 71 -78
80 0 4 14 19 30 35 l30 29 0 136 0 136 -30 29 c-16 16 -30 33 -30 38 0 13 62
77 75 77 6 0 34 -23 63 -51z m327 19 c19 -17 35 -36 35 -43 0 -6 -13 -24 -30
-40 l-30 -29 0 -135 0 -135 32 -33 32 -33 -31 -37 c-17 -21 -37 -38 -46 -38
-9 0 -39 22 -66 48 l-51 49 0 178 0 178 53 51 c28 28 55 51 60 51 4 0 23 -14
42 -32z"/>
</g>
</svg>
